<?xml version="1.0" encoding="UTF-8"?>
<svg xmlns="http://www.w3.org/2000/svg" width="1280" height="800" viewBox="0 0 1280 800">
  
    <defs>
      <linearGradient id="bgGradient" x1="0" y1="0" x2="1" y2="1">
        <stop offset="0%" stop-color="#e9fff8"/>
        <stop offset="46%" stop-color="#f2f9df"/>
        <stop offset="100%" stop-color="#ffffff"/>
      </linearGradient>
      <linearGradient id="mintPanel" x1="0" y1="0" x2="1" y2="1">
        <stop offset="0%" stop-color="#ffffff"/>
        <stop offset="100%" stop-color="#f4fbf8"/>
      </linearGradient>
      <linearGradient id="greenButton" x1="0" y1="0" x2="1" y2="1">
        <stop offset="0%" stop-color="#20d6a0"/>
        <stop offset="100%" stop-color="#047857"/>
      </linearGradient>
      <linearGradient id="docBlue" x1="0" y1="0" x2="1" y2="1">
        <stop offset="0%" stop-color="#eaf6ff"/>
        <stop offset="100%" stop-color="#f8fbff"/>
      </linearGradient>
      <filter id="cardShadow" x="-22%" y="-18%" width="144%" height="145%">
        <feDropShadow dx="0" dy="24" stdDeviation="22" flood-color="#0f172a" flood-opacity="0.15"/>
      </filter>
      <filter id="softShadow" x="-24%" y="-24%" width="148%" height="150%">
        <feDropShadow dx="0" dy="12" stdDeviation="12" flood-color="#0f172a" flood-opacity="0.11"/>
      </filter>
      <filter id="buttonShadow" x="-30%" y="-45%" width="160%" height="190%">
        <feDropShadow dx="0" dy="8" stdDeviation="7" flood-color="#047857" flood-opacity="0.14"/>
      </filter>
      <clipPath id="documentClip">
        <rect x="0" y="0" width="430" height="560" rx="16"/>
      </clipPath>
    </defs>
    <style>
      svg {
        font-family: "PingFang SC", "Noto Sans CJK SC", "Microsoft YaHei", "Helvetica Neue", Arial, sans-serif;
        text-rendering: geometricPrecision;
      }
      .headline { font-size: 54px; font-weight: 820; fill: #17201d; }
      .body { font-size: 25px; font-weight: 560; fill: #33413d; }
      .small { font-size: 15px; font-weight: 650; fill: #53605b; }
      .ui { font-size: 15px; font-weight: 720; fill: #17201d; }
      .mono { font-family: "SFMono-Regular", Menlo, Consolas, monospace; }
    </style>
  
  
    <rect width="1280" height="800" fill="url(#bgGradient)"/>
    <path d="M-80 682 C 178 594 356 812 640 664 C 834 563 944 571 1124 615 C 1218 638 1304 611 1368 560" fill="none" stroke="#0f766e" stroke-width="44" stroke-linecap="round" opacity="0.035"/>
    <path d="M-40 188 C 192 110 357 190 562 162 C 811 128 952 64 1314 112" fill="none" stroke="#0ea5e9" stroke-width="38" stroke-linecap="round" opacity="0.032"/>
    <g transform="translate(222 652) scale(2.5)" opacity="0.05"><path d="M4 17c4-7 10-10 17-10-5 3-8 7-9 12-2-3-5-3-8-2Z" fill="none" stroke="#064e3b" stroke-width="1.4"/></g>
<g transform="translate(660 646) scale(2.05)" opacity="0.045"><path d="M12 2 15 9l7 3-7 3-3 7-3-7-7-3 7-3 3-7Z" fill="#f59e0b"/></g>
<g transform="translate(1120 648) scale(1.9)" opacity="0.05"><path d="M4 19V5l8-3 8 3v14l-8 3-8-3Z" fill="none" stroke="#064e3b" stroke-width="1.5"/><path d="M8 7h8M8 11h7M8 15h5" stroke="#064e3b" stroke-width="1.5"/></g>
<g transform="translate(82 118) scale(2.25)" opacity="0.055"><path d="M12 2a10 10 0 1 0 0 20 10 10 0 0 0 0-20Zm-1.2 4.3 4.9 2.8v5.7l-4.9 2.9-4.9-2.9V9.1l4.9-2.8Z" fill="none" stroke="#064e3b" stroke-width="1.5"/></g>
<g transform="translate(517 118) scale(2.1)" opacity="0.045"><path d="M12 2 14.8 8.4 22 11l-7.2 2.6L12 20l-2.8-6.4L2 11l7.2-2.6L12 2Z" fill="#0ea5e9"/></g>
  
  
    
    <g filter="url(#buttonShadow)">
      <rect x="76" y="242" width="210" height="48" rx="24" fill="#fbfffd" stroke="#bfe7d7"/>
      <text x="94" y="273" font-size="23" font-weight="780" fill="#064e3b">自定义选择模式</text>
    </g>
  
    <text x="76" y="348" class="headline" font-size="54" font-weight="820" fill="#17201d" text-anchor="start">
  <tspan x="76" dy="0">只导出重点内容</tspan>
</text>
    <text x="76" y="436" class="body" font-size="25" font-weight="560" fill="#34413e" text-anchor="start">
  <tspan x="76" dy="0">从长对话中勾选关键轮次，导出干净、</tspan>
  <tspan x="76" dy="37.5">无噪声的报告或资料片段。</tspan>
</text>
    
    <g>
      <circle cx="85" cy="556" r="10" fill="#e8fbf3" stroke="#10b981" stroke-width="2"/>
      <path d="M80 555l4 4 8-9" fill="none" stroke="#10b981" stroke-width="2.6" stroke-linecap="round" stroke-linejoin="round"/>
      <text x="108" y="564" font-size="24" font-weight="650" fill="#33413d">选中特定消息</text>
    </g>
  

    <g>
      <circle cx="85" cy="603" r="10" fill="#e8fbf3" stroke="#10b981" stroke-width="2"/>
      <path d="M80 602l4 4 8-9" fill="none" stroke="#10b981" stroke-width="2.6" stroke-linecap="round" stroke-linejoin="round"/>
      <text x="108" y="611" font-size="24" font-weight="650" fill="#33413d">AI-only 报告模式</text>
    </g>
  

    <g>
      <circle cx="85" cy="650" r="10" fill="#e8fbf3" stroke="#10b981" stroke-width="2"/>
      <path d="M80 649l4 4 8-9" fill="none" stroke="#10b981" stroke-width="2.6" stroke-linecap="round" stroke-linejoin="round"/>
      <text x="108" y="658" font-size="24" font-weight="650" fill="#33413d">单条回答生成长图</text>
    </g>
  
    
  
  
    <g transform="translate(622 102)" filter="url(#cardShadow)">
      <rect x="0" y="0" width="592" height="568" rx="20" fill="#ffffff" stroke="#d9e6e1"/>
      <rect x="0" y="0" width="592" height="58" rx="20" fill="#fbfdfc"/>
      <path d="M0 58h592" stroke="#e1ebe6"/>
      <text x="26" y="36" font-size="16" font-weight="820" fill="#17201d">选择要导出的消息</text>
      <rect x="428" y="16" width="126" height="30" rx="15" fill="#ecfdf5" stroke="#bfe7d7"/>
      <circle cx="447" cy="31" r="9" fill="#10b981"/>
      <text x="470" y="36" font-size="12" font-weight="820" fill="#047857">AI-only 开启</text>

      <g transform="translate(26 88)">
        
    <g transform="translate(0 0)">
      <rect x="0" y="0" width="18" height="18" rx="4" fill="#ffffff" stroke="#b9c8c2"/>
      
      <rect x="38" y="-10" width="486" height="92" rx="16" fill="#ffffff" stroke="#dce8e3"/>
      <circle cx="64" cy="21" r="10" fill="#64748b22"/>
      <text x="82" y="25" font-size="13" font-weight="820" fill="#17201d">You</text>
      <text x="496" y="25" font-size="11" font-weight="650" fill="#78908a" text-anchor="end">2026-06-25</text>
      <text x="62" y="52" font-size="13" font-weight="700" fill="#17201d">整理一份上线前检查清单</text>
      <text x="62" y="72" font-size="11.5" font-weight="620" fill="#53605b">包含隐私、导出质量和商店资料。</text>
    </g>
  
        
    <g transform="translate(0 120)">
      <rect x="0" y="0" width="18" height="18" rx="4" fill="#3b82f6" stroke="#3b82f6"/>
      <path d="M4 9l3 3 7-8" stroke="#fff" stroke-width="2" fill="none" stroke-linecap="round" stroke-linejoin="round"/>
      <rect x="38" y="-10" width="486" height="92" rx="16" fill="#ffffff" stroke="#dce8e3"/>
      <circle cx="64" cy="21" r="10" fill="#10b98122"/>
      <text x="82" y="25" font-size="13" font-weight="820" fill="#17201d">ChatGPT</text>
      <text x="496" y="25" font-size="11" font-weight="650" fill="#78908a" text-anchor="end">2026-06-25</text>
      <text x="62" y="52" font-size="13" font-weight="700" fill="#17201d">上线前检查清单</text>
      <text x="62" y="72" font-size="11.5" font-weight="620" fill="#53605b">我会把任务拆成权限、导出、付款与素材四部分。</text>
    </g>
  
        
    <g transform="translate(0 240)">
      <rect x="0" y="0" width="18" height="18" rx="4" fill="#3b82f6" stroke="#3b82f6"/>
      <path d="M4 9l3 3 7-8" stroke="#fff" stroke-width="2" fill="none" stroke-linecap="round" stroke-linejoin="round"/>
      <rect x="38" y="-10" width="486" height="92" rx="16" fill="#ffffff" stroke="#dce8e3"/>
      <circle cx="64" cy="21" r="10" fill="#64748b22"/>
      <text x="82" y="25" font-size="13" font-weight="820" fill="#17201d">You</text>
      <text x="496" y="25" font-size="11" font-weight="650" fill="#78908a" text-anchor="end">2026-06-25</text>
      <text x="62" y="52" font-size="13" font-weight="700" fill="#17201d">把它改成客户报告格式</text>
      <text x="62" y="72" font-size="11.5" font-weight="620" fill="#53605b">保留重点，不要保留完整追问。</text>
    </g>
  
        
    <g transform="translate(0 360)">
      <rect x="0" y="0" width="18" height="18" rx="4" fill="#3b82f6" stroke="#3b82f6"/>
      <path d="M4 9l3 3 7-8" stroke="#fff" stroke-width="2" fill="none" stroke-linecap="round" stroke-linejoin="round"/>
      <rect x="38" y="-10" width="486" height="92" rx="16" fill="#ffffff" stroke="#dce8e3"/>
      <circle cx="64" cy="21" r="10" fill="#0ea5e922"/>
      <text x="82" y="25" font-size="13" font-weight="820" fill="#17201d">ChatGPT</text>
      <text x="496" y="25" font-size="11" font-weight="650" fill="#78908a" text-anchor="end">2026-06-25</text>
      <text x="62" y="52" font-size="13" font-weight="700" fill="#17201d">客户报告版摘要</text>
      <text x="62" y="72" font-size="11.5" font-weight="620" fill="#53605b">以下是可直接复制进 Word 的正式结构。</text>
    </g>
  
      </g>

      <g transform="translate(79 512)" filter="url(#softShadow)">
        <rect x="0" y="0" width="436" height="58" rx="18" fill="#ffffff" stroke="#dce8e3"/>
        <text x="22" y="36" font-size="13" font-weight="820" fill="#53605b">3 / 4 items</text>
        <circle cx="144" cy="29" r="18" fill="#fff1f2" stroke="#fecdd3"/>
        <text x="144" y="34" font-size="11" font-weight="820" fill="#ef4444" text-anchor="middle">PDF</text>
        <circle cx="196" cy="29" r="18" fill="#eff6ff" stroke="#bfdbfe"/>
        <text x="196" y="34" font-size="11" font-weight="820" fill="#2563eb" text-anchor="middle">DOC</text>
        <circle cx="248" cy="29" r="18" fill="#f5f3ff" stroke="#ddd6fe"/>
        <text x="248" y="34" font-size="11" font-weight="820" fill="#7c3aed" text-anchor="middle">MD</text>
        <circle cx="300" cy="29" r="18" fill="#ecfdf5" stroke="#bfe7d7"/>
        <text x="300" y="34" font-size="11" font-weight="820" fill="#047857" text-anchor="middle">PNG</text>
        <rect x="352" y="12" width="66" height="34" rx="17" fill="url(#greenButton)"/>
        <text x="385" y="35" font-size="13" font-weight="820" fill="#ffffff" text-anchor="middle">导出</text>
      </g>
    </g>
  
</svg>
